<svg id="Layer_1" data-name="Layer 1" xmlns="http://www.w3.org/2000/svg" width="83.4729" height="75.1319" viewBox="0 0 83.4729 75.1319"><defs><style>.cls-1{fill:none;stroke:#fff;stroke-miterlimit:10;stroke-width:2px;}</style></defs><title>6x</title><path class="cls-1" d="M416.0788,491.5293" transform="translate(-415.2776 -490.9387)"/><polyline class="cls-1" points="28.276 0.591 28.276 37.747 0.801 37.747"/><line class="cls-1" x1="28.2758" y1="37.7473" x2="0.8012" y2="0.9611"/><line class="cls-1" x1="27.9991" y1="0.5906" x2="1.0779" y2="37.3768"/><polyline class="cls-1" points="55.474 0.591 55.474 37.747 27.999 37.747 27.999 0.591"/><line class="cls-1" x1="55.4738" y1="37.7473" x2="27.9991" y2="0.9611"/><line class="cls-1" x1="55.197" y1="0.5906" x2="28.2758" y2="37.3768"/><polyline class="cls-1" points="82.672 37.747 55.197 37.747 55.197 0.591"/><path class="cls-1" d="M497.9492,491.5293" transform="translate(-415.2776 -490.9387)"/><line class="cls-1" x1="82.6717" y1="37.7473" x2="55.197" y2="0.9611"/><line class="cls-1" x1="82.3949" y1="0.5906" x2="55.4738" y2="37.3768"/><polyline class="cls-1" points="0.801 37.377 28.276 37.377 28.276 74.534"/><path class="cls-1" d="M416.0788,565.4723" transform="translate(-415.2776 -490.9387)"/><line class="cls-1" x1="28.2758" y1="74.5335" x2="0.8012" y2="37.7473"/><line class="cls-1" x1="27.9991" y1="37.3768" x2="1.0779" y2="74.163"/><polyline class="cls-1" points="27.999 74.534 27.999 37.377 55.474 37.377 55.474 74.534"/><line class="cls-1" x1="55.4738" y1="74.5335" x2="27.9991" y2="37.7473"/><line class="cls-1" x1="55.197" y1="37.3768" x2="28.2758" y2="74.163"/><path class="cls-1" d="M497.9492,565.4723" transform="translate(-415.2776 -490.9387)"/><polyline class="cls-1" points="55.197 74.534 55.197 37.377 82.672 37.377"/><line class="cls-1" x1="82.6717" y1="74.5335" x2="55.197" y2="37.7473"/><line class="cls-1" x1="82.3949" y1="37.3768" x2="55.4738" y2="74.163"/></svg>