<svg id="Default" xmlns="http://www.w3.org/2000/svg" viewBox="0 0 1763.9 685.14"><defs><style>.cls-1{fill:#8f8f8f;}</style></defs><title>ig_logo_round</title><path class="cls-1" d="M1660.57,575.15V555.06l-67.85-16.25c-36.19-8.67-72.4-17.25-108.56-26-20.91-5.09-31.17-21.36-26.43-42.24q12.29-54.12,25.18-108.09c4.49-18.84,22.2-29.05,41.87-24.47,34.53,8,69,16.24,103.54,24.32,61.12,14.29,122.17,28.87,183.41,42.62,17.61,4,30.45,16.89,30.21,38-.7,63.74-.24,127.5-.25,191.25,0,66.16-51.76,122.5-117.55,128.75-20.13,1.91-39.54-2-59.1-4.84-58.21-8.47-116.37-17.32-174.55-26-39.66-5.92-79.27-12.24-119-17.43-10.43-1.36-21.84-1.05-31.93,1.7-51.62,14.06-102.81,29.65-154.4,43.81C1073.81,790.65,962,716.4,946.37,602a167.81,167.81,0,0,1-1.67-22.39c-.11-102.8-.32-205.59,0-308.39.17-51.27,18.09-96.2,54.65-132.09,54.31-53.3,119.13-69.11,192.42-48.51q72.18,20.28,144,41.79c19.09,5.77,37.51,2.26,56.21-.52l182.4-27.19c46-6.85,92-13.53,137.95-20.58,22.77-3.5,38.48,7.1,42.19,29.94q8.79,54.15,16.85,108.41c3,20.31-8.3,35.58-28.69,38.76-46.15,7.18-92.38,13.91-138.58,20.79-57.74,8.61-115.47,17.33-173.26,25.69-23.53,3.41-47.11,6.93-70.8,8.71-29.74,2.24-58-6.58-86.13-14.85-33.8-9.92-67.69-19.56-101.56-29.22-26.08-7.45-47.69,8.9-47.7,36q0,116.15,0,232.29c0,27,21.83,43.47,47.83,36,40.42-11.61,80.87-23.08,121.21-35,33.23-9.81,66.71-10.48,100.76-5.17,47.23,7.37,94.6,13.93,141.91,20.84q57.22,8.35,114.46,16.71C1653.67,574.45,1656.51,574.69,1660.57,575.15Z" transform="translate(-78.05 -81.85)"/><path class="cls-1" d="M78.05,592.14c-.18-19.9,12.06-33.67,29.67-36.12q93-12.91,185.94-26,63.82-8.94,127.69-17.72c12.16-1.66,14.53-4.12,14.53-16.49V348.82c0-11.71-1.76-14-13.08-15.58q-89-12.51-178.1-24.84c-45.18-6.29-90.38-12.41-135.54-18.86C87.05,286.38,75.75,270.06,79,248c5.2-35.54,9.82-71.17,14.9-106.72,3-20.87,18.38-32.55,39.26-29.88,20.33,2.61,40.61,5.62,60.92,8.41q79.56,11,159.14,21.9c49.78,6.86,99.64,13.18,149.27,21,17.19,2.7,33,.17,49.32-4q138-35,276.12-69.58c22.66-5.7,39.11,4.13,44.79,26.79q12.94,51.58,25.91,103.17c5.43,21.68-4.55,38.58-26.31,44.11q-120.7,30.66-241.45,61.14c-13.22,3.34-14,4.29-14.06,17.89q-.19,80.4-.42,160.8c0,11.94,1.08,13.44,12.7,16.27q121.32,29.57,242.66,59.09c19.47,4.75,30,21.78,25.43,41.2Q884.29,673.93,871,728.15c-4.65,18.92-22.31,29.16-41.9,24.49q-91.27-21.72-182.5-43.59c-39.2-9.37-78.25-19.46-117.69-27.69-10.5-2.19-22.25.79-33.31,2.29q-94.66,12.81-189.27,26.08c-55.66,7.72-111.3,15.57-167,23.17-6.26.85-12.81,1.42-19,.52A30.79,30.79,0,0,1,94.1,707.24c-5.11-34.44-9.73-69-14.53-103.45C78.93,599.21,78.38,594.62,78.05,592.14Z" transform="translate(-78.05 -81.85)"/></svg>