<svg id="Layer_1" data-name="Layer 1" xmlns="http://www.w3.org/2000/svg" viewBox="0 0 1764.57 682.11"><defs><style>.cls-1{fill:#020202;}</style></defs><title>ig round web logo</title><path class="cls-1" d="M942.9,539.69q0-71.57,0-143.13c0-19.73,2.1-39.15,7.55-58.18A191.81,191.81,0,0,1,1103.32,202a184.6,184.6,0,0,1,79.48,3.67c30.68,8.31,61.18,17.3,91.75,26,18.54,5.28,37.13,10.39,55.58,16a103.49,103.49,0,0,0,46.16,3q63.72-9.58,127.45-19.1,57.71-8.61,115.43-17.14,44.16-6.57,88.3-13.22c5.36-.8,10.71-1.75,16.09-2.15a53.22,53.22,0,0,1,12.1.42,18.49,18.49,0,0,1,15,12.2,77.26,77.26,0,0,1,4.14,15.64q8.29,54.18,16.17,108.41a63.17,63.17,0,0,1,.54,12.14c-.45,9.36-5.09,16.1-14,19.25a84.81,84.81,0,0,1-15.73,3.85q-76.75,11.57-153.55,22.89c-43.16,6.44-86.29,13-129.46,19.39-26.43,3.89-52.87,7.78-79.38,11.13-29.28,3.71-58.11.39-86.38-7.59-42.64-12-85.18-24.44-127.78-36.62-6.82-2-13.72-3.67-20.63-5.29a31,31,0,0,0-8-.87c-9.36.31-16,5.36-18.7,14.36a54.7,54.7,0,0,0-1.84,11c-.33,4-.21,8.12-.21,12.18q0,128.4,0,256.82c0,3.38,0,6.77.1,10.15a62.29,62.29,0,0,0,.66,8.08c2.42,14.57,11.06,21.11,25.74,19.15a103.76,103.76,0,0,0,14.79-3.48c43.9-12.55,87.82-25,131.66-37.8,28.25-8.21,57-11.54,86.3-9.13,12.46,1,24.86,2.88,37.24,4.7,39.49,5.79,79,11.75,118.43,17.64q57.21,8.53,114.42,17a62.63,62.63,0,0,0,11.09.91c7.78-.22,11.65-4.31,12-12.11.4-8.1-2.85-13.82-10.35-16.86a100.3,100.3,0,0,0-14.57-4.3q-66.69-15.61-133.41-31.08c-8.89-2.07-17.82-4-26.64-6.39a58.18,58.18,0,0,1-12.26-4.71c-6.77-3.62-10.49-9.57-10.52-17.32a57.85,57.85,0,0,1,1.28-13.07q12.56-54.9,25.47-109.72a64.17,64.17,0,0,1,3.1-9.65c4.45-10.85,11.22-15.32,22.79-14.76a74.44,74.44,0,0,1,13,1.94q59.34,13.65,118.62,27.47,81.51,19,163,38.09a142.5,142.5,0,0,1,16.57,4.72c9.72,3.56,15.53,10.61,16.79,21a121.9,121.9,0,0,1,1,14.15q.09,90.86,0,181.7c0,14.59-1.25,29-5.33,43.17A125.7,125.7,0,0,1,1733,877.45c-14.29,1.93-28.39,1-42.46-1-42.51-6.2-85-12.68-127.46-19q-57.71-8.61-115.43-17.13c-24.42-3.62-48.87-7.12-73.27-10.88a94.4,94.4,0,0,0-41.18,2.41q-48.26,14-96.56,27.68c-16.91,4.83-33.75,9.94-50.76,14.4-57.27,15-111.07,6.73-159.75-27-52-36.06-79.16-86.68-82.89-149.81-.46-7.76-.33-15.56-.34-23.34q0-67,0-134Z" transform="translate(-77.71 -198.95)"/><path class="cls-1" d="M440.8,537.62q0-32.47,0-64.95c0-3.39,0-6.78-.21-10.15-1-12.85-4.83-17.14-17.67-19.55-5-.94-10-1.55-15.05-2.25q-79.91-11-159.81-22.06-62.31-8.57-124.64-17.08c-7.37-1-14.71-2.2-22.06-3.39a48,48,0,0,1-6.91-1.59C83,393,77.5,386.2,77.83,374.15c.27-9.77,1.68-19.53,3-29.24q5.59-41.73,11.55-83.42a128.59,128.59,0,0,1,3.2-16.93c3.39-12,10.52-17.38,22.89-17.54a73.89,73.89,0,0,1,11.11.82q94,12.84,188,25.8,91.46,12.63,182.9,25.41a126.45,126.45,0,0,0,49.25-2.63q140.64-35.58,281.41-70.6A120.72,120.72,0,0,1,845,202.9c12.66-1.63,20.72,3.14,25.58,15a86.66,86.66,0,0,1,3.7,11.58q13.07,51.64,26,103.33a76.92,76.92,0,0,1,2.27,15c.39,8.94-3.64,15.86-11.77,19.62a102,102,0,0,1-17.22,5.89c-24.23,6.25-48.53,12.26-72.8,18.35q-81.18,20.37-162.35,40.77a105.54,105.54,0,0,0-13.52,4.26c-6.16,2.45-9.67,7.27-10.4,13.88a103.47,103.47,0,0,0-.59,11.13q0,76.13,0,152.24c0,3,.19,6.09.34,9.13.44,8.85,5.1,14.44,13.41,17.06,3.55,1.12,7.15,2.07,10.77,2.94q106,25.39,212.11,50.76c8.22,2,16.45,3.89,24.63,6a79,79,0,0,1,11.49,3.93c9.5,4.15,13.65,11.77,13.09,21.92a68.79,68.79,0,0,1-1.85,12q-12.56,52.82-25.31,105.58A80.44,80.44,0,0,1,869.27,854c-4.6,11.74-11.91,16.41-24.35,15.4a88,88,0,0,1-13-2.24q-83.9-19.95-167.76-40c-39.14-9.34-78.32-18.54-117.41-28.08A115.94,115.94,0,0,0,502.52,797c-64.3,9-128.64,17.8-193,26.67q-87.95,12.13-175.89,24.21a113.68,113.68,0,0,1-17.19,1c-10.33-.16-17.29-5.49-20.29-15.32a112,112,0,0,1-3.56-16.84q-7.11-50.24-13.91-100.51c-.46-3.35-.79-6.73-.94-10.1-.72-16.67,5.1-24.23,21.56-27.83,5-1.08,10-1.76,15-2.46q95-13.14,190-26.23,54.78-7.54,109.56-15c4.35-.6,8.71-1.28,13-2.26,7.74-1.77,12.53-6.45,13.27-14.61.36-4,.64-8.1.65-12.15C440.83,583,440.8,560.29,440.8,537.62Z" transform="translate(-77.71 -198.95)"/></svg>