<?xml version="1.0" encoding="utf-8"?>
<!-- Generator: Adobe Illustrator 23.0.6, SVG Export Plug-In . SVG Version: 6.00 Build 0)  -->
<svg version="1.1" id="Layer_01" xmlns="http://www.w3.org/2000/svg" xmlns:xlink="http://www.w3.org/1999/xlink" x="0px" y="0px"
	 viewBox="0 0 280.6 280.6" style="enable-background:new 0 0 280.6 280.6;" xml:space="preserve">
<style type="text/css">
	.st0{fill:none;stroke:#FFFFFF;stroke-width:5;stroke-miterlimit:10;}
</style>
<g id="SPLINE_3_">
	<path class="st0" d="M0,140.3c140.3,0,80.7,59.6,80.7,59.6s59.6-59.6,59.6,80.7c0-37.4,5.5-59.3,11.7-76.1
		c9.1-24.9,27.6-43.4,52.5-52.5c16.8-6.2,38.7-11.7,76.1-11.7c-140.3,0-80.7-59.6-80.7-59.6S140.3,140.3,140.3,0
		c0,140.3-59.6,80.7-59.6,80.7S140.3,140.3,0,140.3z"/>
</g>
<line class="st0" x1="196.9" y1="83.7" x2="235.2" y2="45.4"/>
<line class="st0" x1="83.7" y1="83.7" x2="45.4" y2="45.4"/>
<line class="st0" x1="83.7" y1="197" x2="45.4" y2="235.3"/>
</svg>
